<?xml version="1.0" standalone="no"?>
<!DOCTYPE svg PUBLIC "-//W3C//DTD SVG 1.1//EN" "http://www.w3.org/Graphics/SVG/1.1/DTD/svg11.dtd">
<svg xmlns="http://www.w3.org/2000/svg">
<metadata>Generated by Fontastic.me</metadata>
<defs>
<font id="dassault-companion" horiz-adv-x="512">
<font-face font-family="dassault-companion" units-per-em="512" ascent="480" descent="-32"/>
<missing-glyph horiz-adv-x="512" />

<glyph glyph-name="advanced" unicode="&#97;" d="M123 166c-25 0-46-19-49-42l-42 0 0-16 42 0c4-24 25-42 50-42 24 0 45 18 49 42l307 0 0 16-308 0c-4 24-24 42-49 42z m0-84c-19 0-34 15-34 34 0 18 15 34 34 34 18 0 34-16 34-34 0-19-15-34-34-34z m133 224c-25 0-45-19-49-42l-175 0 0-16 175 0c4-23 24-42 49-42 25 0 45 19 49 42l175 0 0 16-175 0c-4 23-24 42-49 42z m0-84c-19 0-34 15-34 34 0 19 15 34 34 34 19 0 34-15 34-34 0-19-15-34-34-34z m182 182c-4 24-25 42-50 42-24 0-45-18-49-42l-307 0 0-16 308 0c4-23 24-42 49-42 25 0 46 19 49 42l42 0 0 16z m-49-42c-18 0-34 15-34 34 0 18 16 33 34 33 19 0 34-15 34-33 0-19-15-34-34-34z"/>
<glyph glyph-name="circle" unicode="&#99;" d="M256 32c-124 0-224 100-224 224 0 124 100 224 224 224 124 0 224-100 224-224 0-124-100-224-224-224z m0 407c-101 0-183-82-183-183 0-101 82-183 183-183 101 0 183 82 183 183 0 101-82 183-183 183z"/>
<glyph glyph-name="close" unicode="&#100;" d="M307 256l163 163c14 14 14 37 0 51-14 14-37 14-51 0l-163-163-163 163c-14 14-37 14-51 0-14-14-14-37 0-51l163-163-163-163c-14-14-14-37 0-51 7-7 16-10 25-10 9 0 19 3 25 10l164 163 163-163c7-7 16-10 25-10 9 0 19 3 25 10 14 14 14 37 0 51z"/>
<glyph glyph-name="fav" unicode="&#101;" d="M125 43c-2 0-5 1-7 2-4 3-6 8-5 13l23 138-100 98c-3 4-5 9-3 13 1 5 5 8 10 9l139 20 62 126c5 9 19 9 24 0l62-126 139-20c5-1 9-4 10-9 2-4 0-9-3-13l-101-98 24-138c1-5-1-10-5-13-4-2-9-3-13-1l-125 65-125-65c-2-1-4-1-6-1z"/>
<glyph glyph-name="home" unicode="&#102;" d="M475 251l-209 203c-7 7-18 7-25 0l-204-204c-7-7-7-18 0-25 7-7 18-7 25 0l27 27 0-183c0-9 8-17 17-17l96 0c9 0 17 8 17 17l0 92 73 0 0-91c0-10 8-18 18-18l95 0c10 0 17 8 17 18l0 182 28-27c3-3 8-5 12-5 5 0 9 2 13 5 7 8 7 19 0 26z m-87 35l0-199-60 0 0 92c0 9-8 17-18 17l-108 0c-10 0-18-8-18-17l0-92-60 0 0 199c0 1 0 1 0 1l130 130z"/>
<glyph glyph-name="search" unicode="&#105;" d="M467 113l-137 137c11 21 18 45 18 71 0 87-72 157-158 157-86 0-158-70-158-157 0-87 71-158 157-158 27 0 53 7 75 19l136-135c8-9 19-13 31-13 13 0 23 4 32 13l4 4c9 9 13 19 13 32 0 11-4 22-13 30z m-419 208c0 78 64 142 142 142 78 0 142-64 142-142 0-78-64-142-142-142-78 0-142 64-142 142z m408-259l-5-4c-11-11-29-11-40 0l-133 133c18 12 33 27 45 45l133-134c5-5 9-12 9-19-1-9-4-16-9-21z m-383 255c-2 0-4 2-4 4 0 66 55 121 121 121 2 0 4-2 4-4 0-2-2-4-4-4-62 0-113-51-113-113 0-2-2-4-4-4z"/>
<glyph glyph-name="passed" unicode="&#107;" d="M273 461l-27 0c-2 11-18 19-29 19-12 0-28-8-29-19l-27 0c-9 0-16-7-16-16l0-33 144 0 0 33c0 8-7 16-16 16z m-56-16c-6 0-12 6-12 13 0 7 6 11 12 11 6 0 11-5 11-11 0-7-5-13-11-13z m-28-151l121 0 0-18-121 0z m-61 9l33 0 0-34-33 0z m61 55l121 0 0-18-121 0z m-61 10l33 0 0-34-33 0z m241-126l0 168c0 18-16 33-34 33l-25 0 0-17 7 0c14 0 25-11 25-25l0-157c0 0 2 0 2 0 9 0 17 0 25-2z m-141-108l-41 0 0 91-90 0 0 176c0 14 12 25 25 25l2 0 0 17-19 0c-19 0-33-15-33-33l0-275c0-18 15-33 33-33l126 0c-2 9-3 17-3 26 0 2 0 4 0 6z m-60 2l-69 69 69 0z m176 89c-53 0-96-43-96-96 0-53 43-96 96-96 53 0 96 43 96 96 0 52-43 96-96 96z m-6-153l-50 50 17 17 30-30 52 64 18-14z"/>
<glyph glyph-name="incomplete" unicode="&#106;" d="M302 318c-3 0-6 2-8 5-2 4 1 9 5 10l113 43c3 2 8-1 10-5 2-4-1-9-5-10l-112-42c-1-1-2-1-3-1z m0-52c-3 0-6 2-8 5-2 4 1 9 5 10l113 42c3 2 8 0 10-4 2-4-1-9-5-11l-112-42c-1 0-2 0-3 0z m0-53c-3 0-6 2-8 5-2 4 1 9 5 10l113 43c3 2 8-1 10-5 2-4-1-9-5-10l-112-42c-1 0-2-1-3-1z m0-52c-3 0-6 2-8 5-2 4 1 9 5 11l113 42c3 2 8-1 10-5 2-3-1-9-5-10l-112-42c-1-1-2-1-3-1z m161 283c-2 2-3 3-4 2-6-1-140-17-201-74-61 57-193 73-198 75-3 0-6-1-8-3-1-1-3-4-3-6l0-288c0-3 3-7 8-7 1 0 134-17 191-69 0-4 4-7 7-8 2-1 4-1 5-1 0 0 0 0 0 0 2 0 4 2 4 3 54 57 194 74 196 74 3 1 4 4 4 8l0 288c0 3 1 5-1 6z m-399-287l0 272c33-4 140-23 184-71l0-266c-55 44-156 62-184 65z m383 0c-27-3-124-21-183-65l0 266c48 47 156 66 183 71z m-230 161c-1 0-2 0-3 1l-113 42c-4 2-6 6-4 10 2 4 5 7 10 5l113-43c3-1 6-5 4-10-1-3-4-5-7-5z m0-52c-1 0-2 0-3 0l-113 42c-4 2-6 6-4 11 2 4 5 6 10 4l113-42c3-2 6-6 4-10-1-3-4-5-7-5z m0-53c-1 0-2 0-3 1l-113 42c-4 2-6 6-4 10 2 4 5 7 10 5l113-43c3-1 6-5 4-10-1-2-4-5-7-5z m0-52c-1 0-2 0-3 1l-113 42c-4 2-6 6-4 10 2 4 5 7 10 5l113-42c3-2 6-6 4-11-1-3-4-5-7-5z"/>
<glyph glyph-name="arrow-bottom" unicode="&#98;" d="M262 122l-198 211 60 57 136-145 126 143 62-53z"/>
<glyph glyph-name="arrow-left" unicode="&#108;" d="M122 250l211 198 57-60-145-136 143-126-53-62z"/>
<glyph glyph-name="arrow-right" unicode="&#109;" d="M390 262l-211-198-57 60 145 136-143 126 53 62z"/>
<glyph glyph-name="arrow-top" unicode="&#110;" d="M250 390l198-211-60-57-136 145-126-143-62 53z"/>
<glyph glyph-name="see" unicode="&#111;" d="M256 32c-124 0-224 100-224 224 0 124 100 224 224 224 124 0 224-100 224-224 0-124-100-224-224-224z m0 407c-101 0-183-82-183-183 0-101 82-183 183-183 101 0 183 82 183 183 0 101-82 183-183 183z m3-250l-99 105 30 29 68-72 63 72 31-27z"/>
<glyph glyph-name="left" unicode="&#103;" d="M376 0l-251 251 0 10 251 251 11-10-246-246 246-246z"/>
<glyph glyph-name="right" unicode="&#104;" d="M136 512l251-251 0-10-251-251-11 10 246 246-246 246z"/>
<glyph glyph-name="remove" unicode="&#112;" d="M292 256l116 116c11 11 11 27 0 36-10 11-26 11-36 0l-116-116-116 116c-11 11-27 11-36 0-11-10-11-26 0-36l116-116-116-116c-11-11-11-27 0-36 4-5 11-8 18-8 6 0 12 3 18 8l116 116 116-116c6-5 12-8 18-8 7 0 13 3 18 8 11 10 11 26 0 36z"/>
<glyph glyph-name="add" unicode="&#113;" d="M282 230l164 0c14 0 26 12 26 26 0 14-12 26-26 26l-164 0 0 164c0 14-12 26-26 26-14 0-26-12-26-26l0-164-164 0c-14 0-26-12-26-26 0-7 3-13 8-18 5-4 11-8 18-8l164 0 0-164c0-7 3-14 8-18 5-4 11-8 18-8 14 0 26 12 26 26z"/>
<glyph glyph-name="folder" unicode="&#114;" d="M342 128l0 227-258 0 0 29-84 0 0-256z"/>
<glyph glyph-name="folder-open" unicode="&#115;" d="M77 307l265 0 0 48-258 0 0 29-84 0 0-231z m265-179l-342 0 84 168 342 0z"/>
<glyph glyph-name="fullsceen" unicode="&#116;" d="M56 398l-24 0 0 77 74 0 0-24-50 0z m49-361l-73 0 0 78 24 0 0-54 49 0z m375 0l-76 0 0 24 52 0 0 55 24 0z m0 362l-24 0 0 52-52 0 0 24 76 0z m-344-23l240 0 0-240-240 0z"/>
<glyph glyph-name="fav-inactive" unicode="&#117;" d="M125 46c-3 0-7 1-9 3-5 3-7 10-7 16l24 137-99 96c-4 4-6 10-4 16 1 5 7 10 13 11l137 21 62 124c2 5 8 9 14 9 6 0 12-3 14-9l62-124 137-21c6-1 12-5 13-11 2-6 0-12-4-16l-100-96 25-137c0-6-2-13-7-16-5-3-11-4-16-1l-124 64-124-64c-1-2-5-2-7-2z m131 426c-3 0-7-1-9-5l-63-128-140-20c-4-1-8-3-8-6-1-3 0-7 2-10l102-99-24-141c0-3 2-7 4-9 2-1 4-2 6-2 2 0 3 0 4 1l126 67 126-66c3-2 7-1 10 1 3 2 5 6 4 9l-24 140 102 99c3 3 3 7 3 10-1 3-4 6-8 6l-141 20-1 1-62 127c-2 3-6 5-9 5z"/>
<glyph glyph-name="help" unicode="&#118;" d="M256 29c-125 0-227 102-227 227 0 125 102 227 227 227 125 0 227-102 227-227 0-125-102-227-227-227z m0 448c-122 0-221-99-221-221 0-122 99-221 221-221 122 0 221 99 221 221 0 122-99 221-221 221z m-21-268l-1 9c-2 17 4 36 20 55 14 18 22 30 22 44 0 17-10 28-30 28-12 0-25-4-32-10l-8 20c11 8 29 13 46 13 37 0 54-23 54-47 0-22-12-38-28-56-14-17-19-31-18-47l0-9z m-7-45c0 12 8 20 19 20 12 0 19-8 19-20 0-11-7-19-19-19-11 0-19 8-19 19z"/>
<glyph glyph-name="rewind" unicode="&#119;" d="M480 409l-196-113 0 113-196-113 0 114-56 0 0-308 56 0 0 114 196-113 0 113 196-113z"/>
<glyph glyph-name="forward" unicode="&#120;" d="M32 103l196 113 0-113 196 113 0-114 56 0 0 308-56 0 0-114-196 113 0-113-196 113z"/>
</font>
</defs>
</svg>
